<svg xmlns="http://www.w3.org/2000/svg" viewBox="0 0 200 300"><path style="fill:#e67f0b" d="M0 0h200v300H0z"/><path d="M83.2 139.63c-.76-.18-1.43-.36-2.11-.49-.5-.09-.67-.38-.69-.86-.05-1.19.28-2.33.4-3.49.17-1.58.34-3.16.34-4.74 0-.64.27-.86.86-.95.8-.11 1.61-.06 2.4-.23.45-.09.64-.29.59-.76a25.34 25.34 0 0 1-.12-4.69c.2-2.86 1.04-5.5 2.92-7.74 1.28-1.53 2.92-2.4 4.93-2.5.58-.03 1.15.1 1.63.46.19.14.33.39.62.12.24-.23.31-.44.17-.76-.41-.99-.58-2.02-.5-3.09.19-2.68 1.26-4.93 3.6-6.36 2.31-1.42 4.72-1.47 7.08-.02.76.46 1.51.94 2.32 1.29.49.22.75.57.67 1.11-.04.28.08.53.18.77.46 1.25.73 2.52.57 3.87-.11.96-.48 1.67-1.5 1.95-.93.25-.92.29-.86 1.27.02.33.09.66.09.98 0 .53.31.61.74.55.78-.1 1.51-.52 2.27-.57 1.1-.07 1.56-.58 1.59-1.61 0-.04.02-.08.03-.12.12-.29.08-.86.37-.82.36.06.36.6.35.96-.01.5.15.78.66.86.28.04.53.13.63.49.09.34.45.22.7.22h16.34c.82 0 1.65.06 2.47.08.33 0 .5.13.5.47 0 .16 0 .37.24.36.23-.01.21-.22.21-.38v-2.54c0-.36.03-.69.5-.67.43.01.38.36.38.64.01.66-.01 1.32.02 1.98.02.58.24.73.78.56.18-.06.28 0 .36.13.06.11.09.23.12.35.08.33-.17.77.14 1 .32.23.76.1 1.15.1 1.03.01 2.06.01 3.09 0 .51 0 1.04.06 1.47-.33.07-.07.25-.09.35-.05.85.39 1.75.21 2.63.23.48 0 .61.21.58.64-.03.39.05.81-.57.8-.84-.02-1.69-.04-2.53.1-.08.01-.17 0-.25-.01-2.19-.65-4.39-.45-6.59-.07-.53.09-1.02.05-1.52-.12-.23-.08-.42-.08-.42.24.01.73-.46.82-1.03.82h-6.56c-.87 0-1.55.24-1.99 1.07-.34.64-.9 1.14-1.51 1.52-.53.34-.6.77-.52 1.32.15 1.06.41 2.1.67 3.14.22.89.22.93-.67 1.14-.59.14-.87.46-.97 1.03-.12.77-.27 1.54-.43 2.31-.2.97-.69 1.74-1.55 2.29-.43.28-.8.65-1.19.98-.52.44-1.07.92-1.78.91-.37 0-.23.68-.64.36-.23-.18-.36-.44-.73-.49-1.65-.24-3.17-.88-4.63-1.66-.89-.48-1.79-.94-2.67-1.44-.38-.22-.57-.17-.61.28 0 .08-.04.16-.06.24-.08.38-.27.78-.2 1.14.07.37.59.37.89.59.6.44.92 1.03 1.04 1.76.25 1.51-.06 3-.17 4.49-.06.86-.18 1.72-.18 2.59 0 1.26-.51 2.32-1.18 3.33-.38.58-.96.46-1.51.3-1.12-.32-1.47.04-1.3 1.24.18 1.28.67 2.35 1.56 3.33 2.26 2.49 3.77 5.44 5.01 8.55.53 1.34 1.06 2.68 1.58 4.03.1.26.19.54.45.64.59.24.69.72.69 1.25 0 .43.09.81.38 1.14.23.27.22.61.22.94.01 2.93-.33 5.84-.77 8.73-.12.8-.13 1.6.02 2.4.27 1.39.28 2.73-.45 4.02-.34.6-.17 1.34-.23 2.01-.1.97.04 1.93.12 2.9.05.69.45 1.23.88 1.74.52.61 1.05 1.22 1.58 1.83.49.57 1.07 1 1.82 1.22.81.23 1.59.58 2.31 1.04.54.34.82 1.78.46 2.29-.14.19-.35.23-.55.24-2.77.13-5.56.52-8.27-.44-1.04-.37-2.11-.35-3.18-.2-.78.1-1.52.05-2.2-.4-.29-.19-.43-.41-.35-.78.38-1.64.52-3.34 1.21-4.91.29-.66.18-1.39.13-2.08-.08-1.07-.22-2.13-.23-3.2 0-.14-.01-.35-.1-.4-.57-.38-.42-1.02-.6-1.54-.83-2.52-.77-5.16-1.13-7.74-.1-.68.21-1.24.58-1.77.68-.97.66-3.32-.02-4.21-.21-.28-.42-.4-.78-.33-1.25.26-2.19-.18-2.9-1.25-1.29-1.96-2.63-3.89-3.93-5.85-.27-.41-.61-.63-1.07-.58-.91.09-1.42-.4-1.79-1.14-.13-.26-.25-.52-.4-.77-.08-.13-.09-.36-.3-.34-.18.02-.23.23-.27.38-.24.84-.73 1.5-1.32 2.13-.33.36-.61.8-.79 1.25-.75 1.91-1.71 3.75-1.87 5.86-.07.9-.44 1.67-1.27 2.14-.4.23-.6.61-.76 1.02-.27.69-.72 1.22-1.26 1.72-1 .93-1.52 2.09-1.3 3.49.1.61.02 1.19-.15 1.77-.31 1.03-.78 2-1.25 2.96-.53 1.1-1.01 2.21-1.34 3.39-.25.9-.67 1.69-1.63 2.05-.18.07-.3.22-.39.39-1.22 2.39-1.9 4.89-1.25 7.57.2.84.55 1.63.48 2.53-.04.54-.21.8-.81.84-1.71.1-3.41.24-5.12 0-1.02-.15-1.13-.26-1.34-1.29-.18-.93-.12-1.85.11-2.76l1.83-7.32c.11-.43.03-.8-.12-1.23-.46-1.27-.31-2.55.23-3.78.16-.36.35-.7.58-1.02.55-.77.87-1.61.89-2.58.04-1.75 1.02-3.15 1.78-4.63.27-.53.64-1.01.99-1.49.76-1.03 1.25-2.21 1.78-3.37.11-.25.17-.53.1-.79-.5-1.78 0-3.52.22-5.26.19-1.45.45-2.89.69-4.33.05-.28-.03-.49-.15-.75-.47-1-.76-2.04-.29-3.13.09-.21.09-.36-.06-.56-.63-.79-.15-2.53.8-2.84.42-.14.46-.39.46-.74 0-1.45-.27-2.87-.46-4.3-.17-1.33-.33-2.66-.2-4 .02-.19-.08-.54.34-.34.03.02.14-.04.14-.06-.02-.86.84-.72 1.32-1.16Zm34.84-18.14c-.21-.37-.03-.99-.51-1.17-.44-.17-.98-.17-1.4.22-.14.13-.32.29-.23.47.27.53-.11.68-.46.87-.34.19-.69.38-1.03.57-.39.22-.5.5-.25.92.27.46.51.94.75 1.42.3.58.33.58.82.14.95-.89 1.41-2.12 2.21-3.11.06-.07.06-.19.09-.32Z" style="fill:#191919"/></svg>